<svg xmlns="http://www.w3.org/2000/svg" viewBox="0 0 309.76001 133.44" width="309.76001" height="133.44">
  <g transform="matrix(1.3333333,0,0,-1.3333333,0,133.44)">
    <g transform="translate(161.0182,39.0219)"><path style="fill:#894c86" d="m0 0c0-.715-.58-1.295-1.296-1.295-.716 0-1.296.58-1.296 1.295 0 .715.58 1.295 1.296 1.295C-.58 1.295 0 .715 0 0"/></g>
    <g transform="translate(98.6025,33.8079)"><path style="fill:#894c86" d="m0 0 .121-2.277.658.96c2.138 2.46 6.783 2.369 7.801-1.081 1.435 3.587 7.551 3.815 8.998.119C17.697-2.581 18-3.631 18-3.895v-9.169h-1.68v8.45c0 .538-.462 1.873-.788 2.329-1.091 1.525-3.98 1.347-5.217.073C9.851-2.69 9.12-4.22 9.12-4.854v-8.21h-1.8v9.049c0 .285-.541 1.619-.74 1.898C5.32-.351 2.225-1.405 1.148-2.885.703-3.497.12-5.078.12-5.813v-7.251H-1.56L-1.68 0z"/></g>
    <g transform="translate(188.3412,31.552)"><path style="fill:#894c86" d="M0 0c-.042-.071-1.256-.735-1.468-.75-.754 1.765-3.216 2.302-4.791 1.309-1.2-.757-1.354-2.288-.115-3.073 2.034-1.288 6.356-.495 6.844-3.831.672-4.592-4.613-5.817-7.97-4.125-.461.232-2.047 1.45-1.943 1.983.027.142 1.112.876 1.271.9.371.054.398-.3.63-.528 1.283-1.267 2.903-1.917 4.682-1.194 1.737.705 2.368 2.76.544 3.777-1.955 1.091-6.193.68-6.631 3.684-.617 4.224 4.766 5.618 7.685 3.602C-.904 1.507.286.487 0 0"/></g>
    <g transform="translate(171.0557,34.1343)"><path style="fill:#894c86" d="M0 0C1.765.199 3.441-.11 4.866-1.186c.168-.126 1.013-.905 1.033-1.014.034-.189-1.072-1.004-1.254-1.004-.113-.001-1.226 1.003-1.579 1.179-2.796 1.391-6.14-.287-6.915-3.24-1.424-5.427 4.556-9.372 8.494-5.159.076.007 1.173-.86 1.21-.927.127-.23-.549-.812-.725-.964-2.946-2.539-7.902-1.66-9.88 1.645C-7.24-6.507-5.082-.573 0 0"/></g>
    <g transform="translate(140.9625,37.5234)"><path style="fill:#894c86" d="M0 0v-3.716h3.72v-1.558H0v-8.929c0-.158.334-.693.475-.844 1.096-1.17 3.037-.038 3.239-.179.179-.492.139-1.027.114-1.542-1.579-.486-3.879-.721-4.96.835-.145.208-.548 1.177-.548 1.37v9.289h-2.88v1.558h2.88V0z"/></g>
    <g transform="translate(149.9625,32.07)"><path style="fill:#894c86" d="m0 0c.005-.048.112-.464.238-.419.771 1.832 3.118 3.052 5.05 2.322L5.038.299C3.149.729 1.275-.172.542-1.98.397-2.339.12-3.252.12-3.596v-7.73H-1.56L-1.68 1.738H0C.045 1.181-.062.545 0 0"/></g>
    <path style="fill:#894c86" d="m158.843 33.808h1.8V20.744h-1.8z"/>
    <g transform="translate(132.0825,28.4143)"><path style="fill:#894c86" d="M0 0C-.422 5.651-8.468 5.478-9.24 0zM1.8-1.558H-9.24c.142-5.15 6.41-6.609 9.304-2.637C.192-4.164 1.35-5.093 1.31-5.316-2.225-10.15-10.429-8.383-10.924-2.102-11.732 8.143 2.45 8.51 1.8-1.558"/></g>
    <g transform="translate(130.1639,48.5504)"><path style="fill:#63656a" d="M0 0C0 1.457-1.183 2.638-2.641 2.638-4.1 2.638-5.283 1.457-5.283 0c0-1.457 1.183-2.638 2.642-2.638C-1.183-2.638 0-1.457 0 0M2.879 10.907V-5.154h-3l-.002 1.318c-.193-.059-.227-.317-.412-.485-1.665-1.51-4.321-1.397-6.009.003-2.631 2.183-2.418 6.798.245 8.87 1.505 1.169 4.219 1.181 5.64-.115.147-.134.114-.37.298-.362v6.832z"/></g>
    <g transform="translate(109.3425,53.704)"><path style="fill:#63656a" d="M0 0 2.641-6.833 5.1 0h6.48V-10.308H8.46V-.24L8.192-.393 4.324-10.191c-.249-.256-2.892-.092-3.426-.059l-.145.215C-.556-6.677-2.119-3.395-3.3 0z"/></g>
    <g transform="translate(155.6025,43.3964)"><path style="fill:#63656a" d="M0 0H-3.12c-.07 1.598.092 3.269.005 4.859-.032.576-.112 1.809-.383 2.254-.582.958-2.164.86-2.793-.05-.148-.214-.429-.913-.429-1.13V0h-3.24v10.308h3.12l.06-1.32c1.183 2.061 4.897 2.148 6.137.138C-.441 8.799 0 7.588 0 7.251z"/></g>
    <g transform="translate(161.3357,53.9106)"><path style="fill:#63656a" d="M0 0C1.565.18 3.505-.1 4.584-1.345c-.43-.261-1.666-2.028-1.994-2.085-.141-.025-1.012.818-2.112.675-3.012-.391-2.693-5.476.566-5.246.667.047 1.314.769 1.539.71.425-.111 1.505-1.783 2.001-2.085-1.318-1.474-3.761-1.641-5.571-1.132C-6.547-8.943-5.939-.682 0 0"/></g>
    <g transform="translate(121.2398,57.0005)"><path style="fill:#63656a" d="m0 0c0-1.036-.841-1.875-1.877-1.875-1.037 0-1.878.839-1.878 1.875 0 1.036.841 1.875 1.878 1.875C-.841 1.875 0 1.036 0 0"/></g>
    <g transform="translate(173.0025,49.7488)"><path style="fill:#63656a" d="m0 0c-.016 2.666-3.895 2.47-4.2 0zm3.24-2.157h-7.32c.247-2.001 2.443-2.622 4.002-1.421.241.186.398.588.616.589.14 0 2.109-1.447 2.109-1.624C2.649-5.241.54-6.235-.026-6.386-4.947-7.699-9.265-2.993-6.65 1.548-4.208 5.791 3.24 4.74 3.24-.3z"/></g>
    <g transform="translate(102.9225,49.7488)"><path style="fill:#63656a" d="m0 0c-.016 2.666-3.895 2.47-4.2 0zm3.24-2.157h-7.32c.247-2.001 2.443-2.622 4.002-1.421.241.186.398.588.616.589.14 0 2.109-1.447 2.109-1.624C2.649-5.241.54-6.235-.026-6.386-4.947-7.699-9.265-2.993-6.65 1.548-4.208 5.791 3.24 4.74 3.24-.3z"/></g>
    <g transform="translate(141.5625,49.7488)"><path style="fill:#63656a" d="m0 0c-.016 2.666-3.895 2.47-4.2 0zm3.24-2.157h-7.32c.247-2.001 2.443-2.622 4.002-1.421.241.186.398.588.616.589.14 0 2.109-1.447 2.109-1.624C2.649-5.241.54-6.235-.026-6.386-4.947-7.699-9.265-2.993-6.65 1.548-4.208 5.791 3.24 4.74 3.24-.3z"/></g>
    <g transform="translate(188.6363,48.3103)"><path style="fill:#894c86" d="m0 0c0 2.198-1.784 3.981-3.985 3.981-2.201 0-3.986-1.783-3.986-3.981 0-2.198 1.785-3.981 3.986-3.981C-1.784-3.981 0-2.198 0 0m-7.834 11.147V3.356c2.615 3.157 8.01 2.074 8.945-2.033 1.266-5.56-5.254-8.765-8.944-4.679v-1.559l-1.321.001v16.061z"/></g>
    <g transform="translate(229.0758,48.3104)"><path style="fill:#894c86" d="m0 0c0 2.198-1.784 3.98-3.985 3.98-2.2 0-3.984-1.782-3.984-3.98 0-2.198 1.784-3.98 3.984-3.98C-1.784-3.98 0-2.198 0 0m1.167 11.147V-4.914l-1.321-.001-.001 1.559c-3.962-4.404-10.853-.283-8.696 5.392 1.361 3.581 6.342 4.229 8.698 1.32v7.791z"/></g>
    <g transform="translate(202.683,51.626)"><path style="fill:#894c86" d="m0 0c-.919-.914-.265-1.832.736-2.24 1.824-.745 4.695-.343 4.747-3.179.069-3.811-6.33-4.012-7.557-.903.305.022.887.658 1.122.601.06-.014.525-.67.732-.83.633-.49 1.698-.81 2.491-.691 1.165.175 2.393 1.349 1.632 2.532-.939 1.459-5.432.556-5.623 3.495C-1.919 1.821 2.177 2.649 4.219 1.119 4.537.881 5.322.134 4.943-.202 3.761-1.253 3.886-.224 3.12.26 2.241.816.744.74 0 0"/></g>
    <g transform="translate(217.2825,49.1495)"><path style="fill:#894c86" d="m0 0c-.342 4.225-6.32 4.053-6.96 0zm1.32-1.199h-8.28c.195-2.957 3.141-4.509 5.752-3.048.339.189 1.2 1.108 1.285 1.122.13.023 1.009-.554.826-.948-.182-.393-1.424-1.312-1.865-1.499-3.045-1.289-6.515.154-7.167 3.505-1.514 7.789 10.099 8.894 9.449.868"/></g>
    <g transform="translate(198.2025,48.3105)"><path style="fill:#894c86" d="M0 0H-2.34c-.316 0-1.244-.219-1.594-.326-2.663-.817-2.032-3.627.635-3.636C-.879-3.971.232-2.285 0 0m0 1.079c.366 3.004-2.657 3.365-4.826 2.363-.235-.109-.805-.6-.982-.557-.054.013-.683.801-.667.878.114.543 2.493 1.333 3.056 1.39 5.839.59 4.491-4.478 4.614-8.334.018-.546.23-1.146.126-1.734-.205.034-1.153-.047-1.2.002-.05.052-.081 1.253-.18 1.437-1.853-3.265-8.478-1.57-6.63 2.546.521 1.159 2.557 2.009 3.749 2.009z"/></g>
    <g transform="translate(68.7791,40.1811)"><path style="fill:#63656a" d="M0 0C0 15.96-12.954 28.898-28.933 28.898-44.912 28.898-57.866 15.96-57.866 0c0-15.96 12.954-28.898 28.933-28.898C-12.954-28.898 0-15.96 0 0m6.93.003c0 19.781-16.055 35.817-35.86 35.817-19.805 0-35.861-16.036-35.861-35.817 0-19.782 16.056-35.818 35.861-35.818 19.805 0 35.86 16.036 35.86 35.818"/></g>
    <g transform="translate(58.6425,36.4447)"><path style="fill:#fefefe" d="m0 0c.669 5.588-.265 11.012-3.67 15.571-9.862 13.203-30.618 7.895-33.735-8.115-4.052-20.817 23.643-32.253 34.982-13.366.521.869 1.163 1.933 1.343 2.914h-10.86c-2.13-3.019-5.285-3.89-8.844-3.201-2.948.571-6.009 3.023-6.096 6.197z"/></g>
    <g transform="translate(47.9625,44.5949)"><path style="fill:#63656a" d="M0 0C-1.152 5-7.075 6.863-11.552 5.125-13.637 4.316-15.805 2.288-16.08 0ZM10.68-8.15H-16.2c.087-3.175 3.148-5.627 6.096-6.197 3.559-.689 6.714.182 8.844 3.2H9.6c-.18-.98-.822-2.044-1.343-2.913-11.339-18.887-39.034-7.451-34.982 13.365 3.117 16.01 23.873 21.319 33.735 8.116 3.405-4.56 4.339-9.983 3.67-15.571"/></g>
    <g transform="translate(76.0425,89.0616)"><path style="fill:#894c86" d="m0 0h-4.44v-20.136h4.32l.001 1.438c2.924-3.37 8.596-1.988 10.743 1.554 1.706 2.816 1.669 7.286-.427 9.89C8.243-4.825 4.325-3.708 1.479-5.133.949-5.398.535-5.888 0-6.113zm-9-25.529c-.83.965-1.712 1.885-2.64 2.756-1.226 1.903-2.409 3.798-3.06 5.993-4.131 13.937 8.575 26.85 22.592 22.804 6.362-1.836 11.465-7.401 12.713-13.91 2.923-15.252-13.238-27.001-26.848-19.384-.959.537-1.786 1.264-2.757 1.741"/></g>
    <g transform="translate(83.4196,76.5076)"><path style="fill:#894c86" d="m0 0c0-2.093-1.699-3.79-3.795-3.79-2.096 0-3.795 1.697-3.795 3.79 0 2.093 1.699 3.79 3.795 3.79C-1.699 3.79 0 2.093 0 0"/></g>
  </g>
</svg>
