<svg id="Capa_2" data-name="Capa 2" xmlns="http://www.w3.org/2000/svg" viewBox="0 0 226.25 91.47">
  <defs>
    <style>
      .cls-1 {
        fill: #63656a;
      }

      .cls-2 {
        fill: #fefefe;
      }

      .cls-3 {
        fill: #894c86;
      }
    </style>
  </defs>
  <g id="Capa_1-2" data-name="Capa 1">
    <g>
      <circle class="cls-3" cx="155.73" cy="56.82" r="1.3"/>
      <path class="cls-3" d="M94.61,62.03l.12,2.28.66-.96c2.14-2.46,6.78-2.37,7.8,1.08,1.44-3.59,7.55-3.82,9-.12.12.3.42,1.35.42,1.62v9.17h-1.68v-8.45c0-.54-.46-1.87-.79-2.33-1.09-1.52-3.98-1.35-5.22-.07-.46.48-1.19,2.01-1.19,2.64v8.21h-1.8v-9.05c0-.29-.54-1.62-.74-1.9-1.26-1.77-4.35-.71-5.43.77-.45.61-1.03,2.19-1.03,2.93v7.25h-1.68l-.12-13.06h1.68Z"/>
      <g>
        <path class="cls-3" d="M184.35,64.29c-.04.07-1.26.74-1.47.75-.75-1.76-3.22-2.3-4.79-1.31-1.2.76-1.35,2.29-.11,3.07,2.03,1.29,6.36.5,6.84,3.83.67,4.59-4.61,5.82-7.97,4.12-.46-.23-2.05-1.45-1.94-1.98.03-.14,1.11-.88,1.27-.9.37-.05.4.3.63.53,1.28,1.27,2.9,1.92,4.68,1.19s2.37-2.76.54-3.78c-1.96-1.09-6.19-.68-6.63-3.68-.62-4.22,4.77-5.62,7.69-3.6.36.25,1.55,1.27,1.26,1.75Z"/>
        <path class="cls-3" d="M167.07,61.71c1.76-.2,3.44.11,4.87,1.19.17.13,1.01.91,1.03,1.01.03.19-1.07,1-1.25,1-.11,0-1.23-1-1.58-1.18-2.8-1.39-6.14.29-6.91,3.24-1.42,5.43,4.56,9.37,8.49,5.16.08,0,1.17.86,1.21.93.13.23-.55.81-.73.96-2.95,2.54-7.9,1.66-9.88-1.64-2.49-4.16-.33-10.1,4.75-10.67Z"/>
      </g>
      <path class="cls-3" d="M136.97,58.32v3.72h3.72v1.56h-3.72v8.93c0,.16.33.69.48.84,1.1,1.17,3.04.04,3.24.18.18.49.14,1.03.11,1.54-1.58.49-3.88.72-4.96-.84-.14-.21-.55-1.18-.55-1.37v-9.29h-2.88v-1.56h2.88v-3.72h1.68Z"/>
      <path class="cls-3" d="M145.97,63.77s.11.46.24.42c.77-1.83,3.12-3.05,5.05-2.32l-.25,1.6c-1.89-.43-3.76.47-4.5,2.28-.15.36-.42,1.27-.42,1.62v7.73h-1.68l-.12-13.06h1.68c.05.56-.06,1.19,0,1.74Z"/>
      <rect class="cls-3" x="154.85" y="62.03" width="1.8" height="13.06"/>
      <path class="cls-3" d="M129.89,68.98h-11.04c.14,5.15,6.41,6.61,9.3,2.64.13-.03,1.29.9,1.25,1.12-3.54,4.83-11.74,3.07-12.23-3.21-.81-10.24,13.37-10.61,12.72-.54ZM128.09,67.43c-.42-5.65-8.47-5.48-9.24,0h9.24Z"/>
      <path class="cls-1" d="M129.05,36.38v16.06h-3v-1.32c-.19.06-.23.32-.41.49-1.66,1.51-4.32,1.4-6.01,0-2.63-2.18-2.42-6.8.25-8.87,1.5-1.17,4.22-1.18,5.64.11.15.13.11.37.3.36v-6.83h3.24ZM126.18,47.29c0-1.46-1.18-2.64-2.64-2.64s-2.64,1.18-2.64,2.64,1.18,2.64,2.64,2.64,2.64-1.18,2.64-2.64Z"/>
      <path class="cls-1" d="M105.35,42.14l2.64,6.83,2.46-6.83h6.48v10.31h-3.12v-10.07l-.27.15-3.87,9.8c-.25.26-2.89.09-3.43.06l-.14-.21c-1.31-3.36-2.87-6.64-4.05-10.04h3.3Z"/>
      <path class="cls-1" d="M151.61,52.44h-3.12c-.07-1.6.09-3.27,0-4.86-.03-.58-.11-1.81-.38-2.25-.58-.96-2.16-.86-2.79.05-.15.21-.43.91-.43,1.13v5.93h-3.24v-10.31h3.12l.06,1.32c1.18-2.06,4.9-2.15,6.14-.14.2.33.64,1.54.64,1.88v7.25Z"/>
      <path class="cls-1" d="M157.35,41.93c1.57-.18,3.5.1,4.58,1.35-.43.26-1.67,2.03-1.99,2.09-.14.02-1.01-.82-2.11-.68-3.01.39-2.69,5.48.57,5.25.67-.05,1.31-.77,1.54-.71.43.11,1.51,1.78,2,2.08-1.32,1.47-3.76,1.64-5.57,1.13-5.56-1.56-4.95-9.83.99-10.51Z"/>
      <circle class="cls-1" cx="115.37" cy="38.84" r="1.88"/>
      <path class="cls-1" d="M172.25,48.25h-7.32c.25,2,2.44,2.62,4,1.42.24-.19.4-.59.62-.59.14,0,2.11,1.45,2.11,1.62,0,.63-2.11,1.62-2.67,1.77-4.92,1.31-9.24-3.39-6.62-7.93,2.44-4.24,9.89-3.19,9.89,1.85v1.86ZM169.01,46.09c-.02-2.67-3.89-2.47-4.2,0h4.2Z"/>
      <path class="cls-1" d="M102.17,48.25h-7.32c.25,2,2.44,2.62,4,1.42.24-.19.4-.59.62-.59.14,0,2.11,1.45,2.11,1.62,0,.63-2.11,1.62-2.67,1.77-4.92,1.31-9.24-3.39-6.62-7.93,2.44-4.24,9.89-3.19,9.89,1.85v1.86ZM98.93,46.09c-.02-2.67-3.89-2.47-4.2,0h4.2Z"/>
      <path class="cls-1" d="M140.81,48.25h-7.32c.25,2,2.44,2.62,4,1.42.24-.19.4-.59.62-.59.14,0,2.11,1.45,2.11,1.62,0,.63-2.11,1.62-2.67,1.77-4.92,1.31-9.24-3.39-6.62-7.93,2.44-4.24,9.89-3.19,9.89,1.85v1.86ZM137.57,46.09c-.02-2.67-3.89-2.47-4.2,0h4.2Z"/>
      <path class="cls-3" d="M176.81,36.38v7.79c2.61-3.16,8.01-2.07,8.94,2.03,1.27,5.56-5.25,8.77-8.94,4.68v1.56s-1.32,0-1.32,0v-16.06h1.32ZM184.65,47.53c0-2.2-1.78-3.98-3.99-3.98s-3.99,1.78-3.99,3.98,1.78,3.98,3.99,3.98,3.99-1.78,3.99-3.98Z"/>
      <path class="cls-3" d="M226.25,36.38v16.06h-1.32s0-1.56,0-1.56c-3.96,4.4-10.85.28-8.7-5.39,1.36-3.58,6.34-4.23,8.7-1.32v-7.79h1.32ZM225.09,47.53c0-2.2-1.78-3.98-3.98-3.98s-3.98,1.78-3.98,3.98,1.78,3.98,3.98,3.98,3.98-1.78,3.98-3.98Z"/>
      <path class="cls-3" d="M198.69,44.21c-.92.91-.27,1.83.74,2.24,1.82.74,4.7.34,4.75,3.18.07,3.81-6.33,4.01-7.56.9.3-.02.89-.66,1.12-.6.06.01.53.67.73.83.63.49,1.7.81,2.49.69,1.16-.18,2.39-1.35,1.63-2.53-.94-1.46-5.43-.56-5.62-3.49s3.9-3.86,5.94-2.33c.32.24,1.1.98.72,1.32-1.18,1.05-1.06.02-1.82-.46-.88-.56-2.38-.48-3.12.26Z"/>
      <path class="cls-3" d="M214.61,47.89h-8.28c.19,2.96,3.14,4.51,5.75,3.05.34-.19,1.2-1.11,1.28-1.12.13-.02,1.01.55.83.95s-1.42,1.31-1.87,1.5c-3.05,1.29-6.52-.15-7.17-3.51-1.51-7.79,10.1-8.89,9.45-.87ZM213.29,46.69c-.34-4.22-6.32-4.05-6.96,0h6.96Z"/>
      <path class="cls-3" d="M194.21,46.45c.37-3-2.66-3.36-4.83-2.36-.24.11-.81.6-.98.56-.05-.01-.68-.8-.67-.88.11-.54,2.49-1.33,3.06-1.39,5.84-.59,4.49,4.48,4.61,8.33.02.55.23,1.15.13,1.73-.2-.03-1.15.05-1.2,0-.05-.05-.08-1.25-.18-1.44-1.85,3.27-8.48,1.57-6.63-2.55.52-1.16,2.56-2.01,3.75-2.01h2.94ZM194.21,47.53h-2.34c-.32,0-1.24.22-1.59.33-2.66.82-2.03,3.63.63,3.64,2.42,0,3.53-1.68,3.3-3.96Z"/>
      <path class="cls-1" d="M71.72,55.66c0-19.78-16.06-35.82-35.86-35.82S0,35.87,0,55.66s16.06,35.82,35.86,35.82,35.86-16.04,35.86-35.82ZM64.79,55.66c0-15.96-12.95-28.9-28.93-28.9S6.92,39.7,6.92,55.66s12.95,28.9,28.93,28.9,28.93-12.94,28.93-28.9Z"/>
      <path class="cls-2" d="M64.79,55.66c0,15.96-12.95,28.9-28.93,28.9s-28.93-12.94-28.93-28.9,12.95-28.9,28.93-28.9,28.93,12.94,28.93,28.9ZM54.65,59.39c.67-5.59-.27-11.01-3.67-15.57-9.86-13.2-30.62-7.89-33.73,8.12-4.05,20.82,23.64,32.25,34.98,13.37.52-.87,1.16-1.93,1.34-2.91h-10.86c-2.13,3.02-5.29,3.89-8.84,3.2-2.95-.57-6.01-3.02-6.1-6.2h26.88Z"/>
      <path class="cls-2" d="M43.97,51.24h-16.08c.27-2.29,2.44-4.32,4.53-5.13,4.48-1.74,10.4.13,11.55,5.13Z"/>
      <path class="cls-1" d="M54.65,59.39h-26.88c.09,3.17,3.15,5.63,6.1,6.2,3.56.69,6.71-.18,8.84-3.2h10.86c-.18.98-.82,2.04-1.34,2.91-11.34,18.89-39.03,7.45-34.98-13.37,3.12-16.01,23.87-21.32,33.73-8.12,3.41,4.56,4.34,9.98,3.67,15.57ZM43.97,51.24c-1.15-5-7.08-6.86-11.55-5.13-2.09.81-4.25,2.84-4.53,5.13h16.08Z"/>
      <g>
        <path class="cls-3" d="M63.05,32.31c-.83-.96-1.71-1.89-2.64-2.76-1.23-1.9-2.41-3.8-3.06-5.99-4.13-13.94,8.58-26.85,22.59-22.8,6.36,1.84,11.47,7.4,12.71,13.91,2.92,15.25-13.24,27-26.85,19.38-.96-.54-1.79-1.26-2.76-1.74ZM72.05,6.78h-4.44v20.14h4.32v-1.44c2.92,3.37,8.6,1.99,10.74-1.55,1.71-2.82,1.67-7.29-.43-9.89-1.95-2.43-5.87-3.55-8.72-2.12-.53.27-.94.76-1.48.98v-6.11Z"/>
        <ellipse class="cls-3" cx="75.64" cy="19.33" rx="3.79" ry="3.79"/>
      </g>
    </g>
  </g>
</svg>
