<?xml version="1.0" encoding="UTF-8"?>
<svg id="Capa_2" data-name="Capa 2" xmlns="http://www.w3.org/2000/svg" viewBox="0 0 340.05 340.05">
  <defs>
    <style>
      .cls-1 { fill: #edb321; }
      .cls-2 { fill: #d62216; }
      .cls-3 { fill: #23398d; }
      .cls-4 { fill: #009739; }
      .cls-5 { fill: #833d8e; }
    </style>
  </defs>
  <g id="Capa_1-2" data-name="Capa 1">
    <g>
      <path class="cls-1" d="M170.02,11.05c-13.88,0-25.13,11.25-25.13,25.13v267.7h0c.01,13.86,11.26,25.1,25.12,25.1s25.11-11.24,25.13-25.1V36.18c0-13.88-11.25-25.13-25.13-25.13"/>
      <path fill="#000" d="M303.86,144.91h-83.6c-6.43,0-12.85-2.46-17.76-7.36-4.9-4.9-7.35-11.32-7.36-17.74h0v50.22h0v50.26h0c0-6.43,2.45-12.86,7.36-17.77,4.9-4.9,11.33-7.36,17.76-7.36h83.6c13.88,0,25.13-11.25,25.13-25.13s-11.25-25.13-25.13-25.13"/>
      <path class="cls-4" d="M332.67,7.38c-9.81-9.81-25.72-9.81-35.53,0l-94.66,94.65h0c-4.9,4.91-7.35,11.34-7.34,17.77,0,6.42,2.46,12.84,7.36,17.74,4.9,4.9,11.33,7.36,17.76,7.36,6.42,0,12.85-2.45,17.76-7.34h0s7.38-7.38,7.38-7.38l87.28-87.28c9.81-9.81,9.81-25.72,0-35.53"/>
      <path class="cls-3" d="M332.67,297.15l-87.28-87.28-7.38-7.38h0c-4.91-4.9-11.34-7.34-17.76-7.34-6.43,0-12.85,2.46-17.76,7.36-4.91,4.91-7.36,11.34-7.36,17.77s2.45,12.85,7.34,17.75h0s94.66,94.66,94.66,94.66c9.81,9.81,25.72,9.81,35.53,0,9.81-9.81,9.81-25.72,0-35.53"/>
      <path fill="#000" d="M36.18,144.89h83.6c6.43,0,12.85-2.46,17.76-7.36,4.9-4.9,7.35-11.32,7.36-17.74h0v50.22h0v50.26h0c0-6.43-2.45-12.86-7.36-17.77-4.9-4.9-11.33-7.36-17.76-7.36H36.18c-13.88,0-25.13-11.25-25.13-25.13s11.25-25.13,25.13-25.13"/>
      <path class="cls-5" d="M7.36,7.36c9.81-9.81,25.72-9.81,35.53,0l94.66,94.66h0c4.9,4.91,7.35,11.34,7.34,17.77,0,6.42-2.46,12.84-7.36,17.74-4.9,4.9-11.33,7.36-17.76,7.36-6.43,0-12.85-2.45-17.76-7.34h0l-7.38-7.38L7.36,42.89C-2.45,33.08-2.45,17.17,7.36,7.36"/>
      <path class="cls-2" d="M7.36,297.14l87.28-87.28,7.38-7.38h0c4.91-4.9,11.33-7.35,17.76-7.34,6.43,0,12.85,2.46,17.76,7.36,4.91,4.91,7.36,11.34,7.36,17.77,0,6.42-2.45,12.85-7.34,17.75l-94.66,94.66c-9.81,9.81-25.72,9.81-35.53,0-9.81-9.81-9.81-25.72,0-35.53"/>
    </g>
  </g>
</svg>
