<svg xmlns="http://www.w3.org/2000/svg" viewBox="0 0 2560 1440" width="2560" height="1440">
  <g transform="matrix(1.3333333,0,0,-1.3333333,0,1440)">
    <g transform="translate(1024.7123,522.1785)"><path style="fill:#000" d="M0 0h-1.724l-40.479 98.758h-38.328V-48.233h30.144v96.035h1.222l38.038-95.317H9.402l38.041 94.956h1.221V-48.233H78.81V98.758H40.481z"/></g>
    <g transform="translate(1165.121,531.7228)"><path style="fill:#000" d="m0 0 18.095 55.628h1.148L37.304 0zM-1.358 89.215-52.1-57.778h33.304l10.903 33.521H45.179l10.883-33.521h33.303L38.691 89.215z"/></g>
    <g transform="translate(1368.8125,532.2251)"><path style="fill:#000" d="m0 0c-2.181 4.74-5.228 8.856-9.153 12.346-3.925 3.491-8.566 6.435-13.923 8.827-5.361 2.392-11.247 4.31-17.657 5.744l-13.205 3.16c-3.206.718-6.223 1.587-9.047 2.618-2.82 1.028-5.312 2.249-7.462 3.659-2.153 1.412-3.838 3.102-5.059 5.063-1.221 1.958-1.788 4.257-1.69 6.888 0 3.158.924 5.982 2.764 8.47 1.84 2.485 4.511 4.438 8.006 5.849 3.491 1.412 7.772 2.119 12.844 2.119 7.465 0 13.376-1.607 17.731-4.808 4.355-3.208 6.814-7.704 7.391-13.495H1.327c-.145 8.753-2.488 16.457-7.032 23.112-4.551 6.649-10.902 11.843-19.059 15.573-8.157 3.735-17.694 5.6-28.602 5.6-10.716 0-20.29-1.865-28.71-5.6-8.422-3.73-15.037-8.924-19.846-15.573-4.807-6.655-7.19-14.426-7.142-23.327-.048-10.862 3.52-19.502 10.697-25.911 7.175-6.41 16.966-11.126 29.353-14.138l16.009-4.024c5.354-1.288 9.891-2.724 13.601-4.304 3.704-1.576 6.529-3.491 8.468-5.741 1.939-2.251 2.906-5.023 2.906-8.324 0-3.544-1.074-6.678-3.227-9.402-2.154-2.729-5.18-4.858-9.08-6.39-3.901-1.534-8.485-2.295-13.747-2.295-5.361 0-10.154.825-14.388 2.475-4.236 1.65-7.611 4.115-10.125 7.391-2.509 3.275-3.934 7.381-4.266 12.312h-30.077c.24-10.579 2.813-19.439 7.717-26.596 4.903-7.151 11.747-12.547 20.531-16.183 8.776-3.637 19.102-5.454 30.969-5.454 11.961 0 22.188 1.807 30.681 5.42 8.495 3.611 15.001 8.703 19.523 15.284 4.52 6.581 6.806 14.367 6.854 23.364C3.287-10.168 2.174-4.735 0 0"/></g>
    <g transform="translate(739.4091,706.3789)"><path style="fill:#edb321" d="m0 0c-13.876 0-25.126-11.249-25.126-25.126v-267.699h.001c.014-13.865 11.258-25.101 25.125-25.101 13.869 0 25.113 11.236 25.126 25.101V-25.126C25.126-11.249 13.878 0 0 0"/></g>
    <g transform="translate(873.2485,572.5253)"><path style="fill:#000" d="m0 0h-.002-58.459-25.137c-6.426.002-12.852 2.456-17.757 7.359-4.898 4.901-7.35 11.32-7.357 17.743h-.002v-50.221-.007-.005-50.248h.002c0 6.432 2.452 12.861 7.359 17.769 4.903 4.903 11.329 7.356 17.755 7.357h25.137H0c13.876 0 25.126 11.251 25.126 25.127C25.126-11.248 13.876 0 0 0"/></g>
    <g transform="translate(902.0657,710.0559)"><path style="fill:#009739" d="m0 0c-9.811 9.813-25.72 9.813-35.532 0l-94.657-94.654.002-.002c-4.902-4.91-7.349-11.343-7.342-17.773.007-6.422 2.459-12.842 7.357-17.743 4.905-4.903 11.331-7.357 17.757-7.359 6.425-.001 12.853 2.446 17.761 7.344v-.002l7.376 7.378L0-35.533C9.813-25.721 9.813-9.813 0 0"/></g>
    <g transform="translate(902.0674,420.2766)"><path style="fill:#23398d" d="m0 0-87.28 87.278-7.376 7.378v-.002c-4.908 4.898-11.336 7.345-17.761 7.343-6.426-.003-12.852-2.455-17.755-7.358-4.906-4.908-7.359-11.338-7.359-17.768 0-6.423 2.448-12.845 7.342-17.748l-.002-.002 94.658-94.654c9.811-9.813 25.72-9.813 35.533 0C9.811-25.722 9.811-9.813 0 0"/></g>
    <g transform="translate(605.5714,572.542)"><path style="fill:#000" d="m0 0v0h58.46 25.138c6.426.002 12.851 2.456 17.755 7.359 4.9 4.899 7.352 11.319 7.357 17.742h.002v-50.222-.005-.005-50.248h-.002c.002 6.432-2.45 12.861-7.357 17.768-4.904 4.903-11.329 7.355-17.755 7.358H58.46H0c-13.878 0-25.126 11.251-25.126 25.127C-25.126-11.25-13.878 0 0 0"/></g>
    <g transform="translate(576.754,710.0728)"><path style="fill:#833d8e" d="m0 0c9.811 9.811 25.722 9.811 35.533 0l94.656-94.656h-.002c4.902-4.911 7.349-11.343 7.342-17.774-.005-6.423-2.459-12.842-7.357-17.742-4.905-4.903-11.329-7.357-17.755-7.359-6.427-.001-12.853 2.446-17.761 7.342h-.002l-7.376 7.376L0-35.533C-9.813-25.722-9.813-9.813 0 0"/></g>
    <g transform="translate(576.7524,420.2924)"><path style="fill:#d62216" d="m0 0 87.278 87.278 7.376 7.378.002-.002c4.908 4.898 11.334 7.347 17.76 7.343 6.427-.003 12.851-2.455 17.756-7.358 4.906-4.907 7.359-11.338 7.357-17.768 0-6.423-2.447-12.845-7.34-17.749L35.533-35.533C25.722-45.346 9.811-45.346 0-35.533-9.813-25.722-9.813-9.813 0 0"/></g>
  </g>
</svg>
