<svg id="Capa_2" data-name="Capa 2" xmlns="http://www.w3.org/2000/svg" viewBox="0 0 802.75 340.05">
  <defs>
    <style>
      .cls-1 {
        fill: #edb321;
      }

      .cls-2 {
        fill: #d62216;
      }

      .cls-3 {
        fill: #23398d;
      }

      .cls-4 {
        fill: #009739;
      }

      .cls-5 {
        fill: #833d8e;
      }

      .cls-text {
        fill: #ffffff;
      }
    </style>
  </defs>
  <g id="Capa_1-2" data-name="Capa 1">
    <g>
      <polygon class="cls-text" points="455.32 195.25 453.6 195.25 413.12 96.49 374.79 96.49 374.79 243.49 404.93 243.49 404.93 147.45 406.15 147.45 444.19 242.77 464.72 242.77 502.76 147.81 503.98 147.81 503.98 243.49 534.13 243.49 534.13 96.49 495.8 96.49 455.32 195.25"/>
      <path class="cls-text" d="M594.37,96.49l-50.74,146.99h33.3l10.9-33.52h53.07l10.88,33.52h33.3l-50.67-146.99h-40.05ZM595.73,185.71l18.1-55.63h1.15l18.06,55.63h-37.3Z"/>
      <path class="cls-text" d="M799.42,185.21c-2.18-4.74-5.23-8.86-9.15-12.35-3.92-3.49-8.57-6.43-13.92-8.83-5.36-2.39-11.25-4.31-17.66-5.74l-13.2-3.16c-3.21-.72-6.22-1.59-9.05-2.62-2.82-1.03-5.31-2.25-7.46-3.66-2.15-1.41-3.84-3.1-5.06-5.06-1.22-1.96-1.79-4.26-1.69-6.89,0-3.16.92-5.98,2.76-8.47,1.84-2.48,4.51-4.44,8.01-5.85,3.49-1.41,7.77-2.12,12.84-2.12,7.47,0,13.38,1.61,17.73,4.81,4.36,3.21,6.81,7.7,7.39,13.49h29.79c-.15-8.75-2.49-16.46-7.03-23.11-4.55-6.65-10.9-11.84-19.06-15.57-8.16-3.74-17.69-5.6-28.6-5.6s-20.29,1.87-28.71,5.6c-8.42,3.73-15.04,8.92-19.85,15.57-4.81,6.65-7.19,14.43-7.14,23.33-.05,10.86,3.52,19.5,10.7,25.91,7.18,6.41,16.97,11.13,29.35,14.14l16.01,4.02c5.35,1.29,9.89,2.72,13.6,4.3,3.7,1.58,6.53,3.49,8.47,5.74,1.94,2.25,2.91,5.02,2.91,8.32,0,3.54-1.07,6.68-3.23,9.4-2.15,2.73-5.18,4.86-9.08,6.39-3.9,1.53-8.49,2.29-13.75,2.29s-10.15-.82-14.39-2.47c-4.24-1.65-7.61-4.11-10.13-7.39-2.51-3.27-3.93-7.38-4.27-12.31h-30.08c.24,10.58,2.81,19.44,7.72,26.6,4.9,7.15,11.75,12.55,20.53,16.18,8.78,3.64,19.1,5.45,30.97,5.45s22.19-1.81,30.68-5.42c8.49-3.61,15-8.7,19.52-15.28,4.52-6.58,6.81-14.37,6.85-23.36-.05-6.12-1.16-11.56-3.33-16.29"/>
      <path class="cls-1" d="M170.02,11.05c-13.88,0-25.13,11.25-25.13,25.13v267.7h0c.01,13.86,11.26,25.1,25.12,25.1s25.11-11.24,25.13-25.1V36.18c0-13.88-11.25-25.13-25.13-25.13"/>
      <path d="M303.86,144.91h-83.6c-6.43,0-12.85-2.46-17.76-7.36-4.9-4.9-7.35-11.32-7.36-17.74h0v50.22h0v50.26h0c0-6.43,2.45-12.86,7.36-17.77,4.9-4.9,11.33-7.36,17.76-7.36h83.6c13.88,0,25.13-11.25,25.13-25.13s-11.25-25.13-25.13-25.13"/>
      <path class="cls-4" d="M332.67,7.38c-9.81-9.81-25.72-9.81-35.53,0l-94.66,94.65h0c-4.9,4.91-7.35,11.34-7.34,17.77,0,6.42,2.46,12.84,7.36,17.74,4.9,4.9,11.33,7.36,17.76,7.36,6.42,0,12.85-2.45,17.76-7.34h0s7.38-7.38,7.38-7.38l87.28-87.28c9.81-9.81,9.81-25.72,0-35.53"/>
      <path class="cls-3" d="M332.67,297.15l-87.28-87.28-7.38-7.38h0c-4.91-4.9-11.34-7.34-17.76-7.34-6.43,0-12.85,2.46-17.76,7.36-4.91,4.91-7.36,11.34-7.36,17.77s2.45,12.85,7.34,17.75h0s94.66,94.66,94.66,94.66c9.81,9.81,25.72,9.81,35.53,0,9.81-9.81,9.81-25.72,0-35.53"/>
      <path d="M36.18,144.89h83.6c6.43,0,12.85-2.46,17.76-7.36,4.9-4.9,7.35-11.32,7.36-17.74h0v50.22h0v50.26h0c0-6.43-2.45-12.86-7.36-17.77-4.9-4.9-11.33-7.36-17.76-7.36H36.18c-13.88,0-25.13-11.25-25.13-25.13s11.25-25.13,25.13-25.13"/>
      <path class="cls-5" d="M7.36,7.36c9.81-9.81,25.72-9.81,35.53,0l94.66,94.66h0c4.9,4.91,7.35,11.34,7.34,17.77,0,6.42-2.46,12.84-7.36,17.74-4.9,4.9-11.33,7.36-17.76,7.36-6.43,0-12.85-2.45-17.76-7.34h0l-7.38-7.38L7.36,42.89C-2.45,33.08-2.45,17.17,7.36,7.36"/>
      <path class="cls-2" d="M7.36,297.14l87.28-87.28,7.38-7.38h0c4.91-4.9,11.33-7.35,17.76-7.34,6.43,0,12.85,2.46,17.76,7.36,4.91,4.91,7.36,11.34,7.36,17.77,0,6.42-2.45,12.85-7.34,17.75l-94.66,94.66c-9.81,9.81-25.72,9.81-35.53,0-9.81-9.81-9.81-25.72,0-35.53"/>
    </g>
  </g>
</svg>
