<svg id="Capa_2" data-name="Capa 2" xmlns="http://www.w3.org/2000/svg" viewBox="0 0 826.39 298.11">
  <defs>
    <style>
      .cls-1 {
        fill: #0078b3;
      }

      .cls-2 {
        fill: #1a1a1a;
      }

      .cls-3 {
        fill: #eba733;
      }

      .cls-4 {
        fill: #e16f31;
      }
    </style>
  </defs>
  <g id="Capa_1-2" data-name="Capa 1">
    <g>
      <g>
        <g>
          <path class="cls-2" d="M3.07,289.59c-1.91,0-2.72-2.26-2.72-4.53s.81-4.51,2.72-4.51h36.84c1.85,0,2.77,2.26,2.77,4.51s-.92,4.53-2.77,4.53H3.07Z"/>
          <path class="cls-2" d="M40.25,251.36l-20.04,11h19.69c1.85,0,2.77,2.25,2.77,4.51s-.92,4.52-2.77,4.52H3.13c-1.92,0-2.78-2.26-2.78-4.52,0-3.24.29-4.47,4.52-6.66l17.89-9.39H3.07c-1.91,0-2.72-2.26-2.72-4.51s.81-4.52,2.72-4.52h36.84c1.85,0,2.77,2.26,2.77,4.52,0,2.08-.4,3.94-2.43,5.04Z"/>
          <path class="cls-2" d="M31.33,215.27c-7.01,0-5.79,18.35-19.34,18.35-8.68,0-11.99-7.57-11.99-14.81,0-3.07.58-11.53,5.1-11.53,1.56,0,4.75,1.05,4.75,3.59,0,2.07-2.19,3.17-2.19,7.93,0,4.11,1.67,5.79,3.46,5.79,5.8,0,4.69-18.36,19.29-18.36,8.34,0,12.86,6.08,12.86,14.47,0,7.6-3.72,13.97-7.54,13.97-1.96,0-4.86-1.73-4.86-3.93,0-2.72,4.29-4.46,4.29-9.84,0-2.66-1.04-5.62-3.82-5.62Z"/>
          <path class="cls-2" d="M.34,173.79c0-1.9,2.09-2.72,4-2.72,2.2,0,4.11.99,4.11,2.72v7.99h31.45c1.85,0,2.77,2.28,2.77,4.52s-.92,4.52-2.77,4.52H8.45v7.99c0,1.75-1.91,2.72-4.11,2.72-1.91,0-4-.8-4-2.72v-25.02Z"/>
          <path class="cls-2" d="M3.07,164.58c-1.91,0-2.72-2.26-2.72-4.52s.81-4.52,2.72-4.52h36.84c1.85,0,2.77,2.26,2.77,4.52s-.92,4.52-2.77,4.52H3.07Z"/>
          <path class="cls-2" d="M.34,121.31c0-1.92,2.09-2.72,4-2.72,2.2,0,4.11.99,4.11,2.72v8h31.45c1.85,0,2.77,2.26,2.77,4.51s-.92,4.52-2.77,4.52H8.45v8c0,1.74-1.91,2.71-4.11,2.71-1.91,0-4-.81-4-2.71v-25.03Z"/>
          <path class="cls-2" d="M3.07,92.12c-1.91,0-2.72-2.2-2.72-4.51s.81-4.51,2.72-4.51h26.29c9.95,0,13.67,6.42,13.67,14.58s-3.72,14.6-13.67,14.6H3.07c-1.91,0-2.72-2.2-2.72-4.51s.81-4.53,2.72-4.53h26.29c3.94,0,5.79-2.09,5.79-5.56s-1.85-5.56-5.79-5.56H3.07Z"/>
          <path class="cls-2" d="M.34,49.02c0-1.91,2.09-2.72,4-2.72,2.2,0,4.11.99,4.11,2.72v8h31.45c1.85,0,2.77,2.26,2.77,4.51s-.92,4.53-2.77,4.53H8.45v7.99c0,1.75-1.91,2.72-4.11,2.72-1.91,0-4-.8-4-2.72v-25.02Z"/>
          <path class="cls-2" d="M29.36,40.92h-15.35C4.06,40.92.34,34.71.34,26.72s3.72-14.24,13.67-14.24h15.35c9.95,0,13.67,6.25,13.67,14.24s-3.72,14.2-13.67,14.2ZM14.01,21.51c-3.99,0-5.8,1.97-5.8,5.21s1.81,5.16,5.8,5.16h15.35c4,0,5.79-1.9,5.79-5.16s-1.79-5.21-5.79-5.21h-15.35Z"/>
        </g>
        <path class="cls-3" d="M627.64,149.79C627.64,67.07,560.58,0,477.85,0s-149.79,67.07-149.79,149.79c0,75.97,56.6,138.57,129.89,148.32v-149.54h-3.98c-6.57,0-9.04-4.53-5.51-10.07l22.97-36.09c3.53-5.55,9.3-5.55,12.83,0l22.99,36.09c3.52,5.54,1.04,10.07-5.52,10.07h-3.98v149.54c73.31-9.75,129.9-72.35,129.9-148.32Z"/>
        <path class="cls-1" d="M753.15,9.55h-94.66c-6.55,0-11.93,5.38-11.93,11.93v232.9l63.29-98.8-5.69-3.66c-5.53-3.53-5.17-8.7.77-11.45l38.84-18.01c5.95-2.76,10.8.35,10.79,6.92l-.12,42.8c-.02,6.56-4.55,9.04-10.09,5.5l-5.69-3.64-74.31,115.98h88.78c6.56,0,11.94-5.36,11.94-11.94V21.48c0-6.55-5.38-11.93-11.94-11.93Z"/>
        <path class="cls-4" d="M333.62,281.95l-72.52-112.91c33.09-4.92,61.12-33.49,61.12-78.43,0-55.18-38.71-83.02-82.36-83.02H73.02c-6.58,0-11.94,5.37-11.94,11.93v260.54c0,6.57,5.36,11.93,11.94,11.93h125.92l-77.03-118.09c-20.68-31.72-11.71-74.34,19.98-95.02,15.36-10.04,33.73-13.47,51.67-9.69,17.95,3.77,33.36,14.31,43.39,29.67l7.2,11.03,4.11-2.69c5.5-3.58,10.06-1.14,10.13,5.42l.48,42.79c.06,6.57-4.76,9.72-10.74,7.01l-38.97-17.69c-5.99-2.71-6.38-7.86-.88-11.44l5.88-3.84-7.2-11.04c-4.79-7.35-12.17-12.39-20.77-14.21-8.59-1.78-17.36-.16-24.72,4.65-15.17,9.9-19.46,30.31-9.56,45.48l89.8,137.64h86.44c6.55,0,9.03-4.53,5.48-10.04Z"/>
      </g>
      <path d="M826.39,271.29c0,9.59-7.52,17.11-17.31,17.11s-17.41-7.52-17.41-17.11,7.73-16.9,17.41-16.9,17.31,7.53,17.31,16.9ZM795.99,271.29c0,7.53,5.57,13.5,13.19,13.5s12.89-5.97,12.89-13.39-5.46-13.6-12.99-13.6-13.09,6.07-13.09,13.49ZM806.4,280.16h-3.92v-16.9c1.54-.31,3.71-.52,6.49-.52,3.19,0,4.63.52,5.87,1.24.92.71,1.64,2.06,1.64,3.71,0,1.85-1.44,3.3-3.5,3.91v.21c1.64.62,2.58,1.85,3.09,4.12.52,2.58.82,3.61,1.24,4.23h-4.23c-.51-.62-.82-2.16-1.34-4.13-.3-1.85-1.33-2.68-3.5-2.68h-1.85v6.8ZM806.5,270.58h1.85c2.16,0,3.92-.72,3.92-2.48,0-1.54-1.13-2.58-3.61-2.58-1.03,0-1.75.1-2.16.2v4.85Z"/>
    </g>
  </g>
</svg>
