<svg xmlns="http://www.w3.org/2000/svg" viewBox="0 0 2560 1440" width="2560" height="1440">
  <g transform="matrix(1.3333333,0,0,-1.3333333,0,1440)">
    <g transform="translate(552.8851,410.916)"><path style="fill:#1a1a1a" d="m0 0c-1.911 0-2.722 2.263-2.722 4.526 0 2.256.811 4.512 2.722 4.512h36.839c1.852 0 2.773-2.256 2.773-4.512C39.612 2.263 38.691 0 36.839 0z"/></g>
    <g transform="translate(590.0668,449.1476)"><path style="fill:#1a1a1a" d="m0 0-20.037-11.004h19.695c1.851 0 2.772-2.253 2.772-4.514 0-2.256-.921-4.519-2.772-4.519H-37.12c-1.916 0-2.784 2.263-2.784 4.519 0 3.244.292 4.471 4.524 6.657l17.886 9.387h-19.688c-1.911 0-2.722 2.258-2.722 4.512 0 2.258.811 4.516 2.722 4.516h36.84C1.509 9.554 2.43 7.296 2.43 5.038 2.43 2.957 2.029 1.103 0 0"/></g>
    <g transform="translate(581.1486,485.2334)"><path style="fill:#1a1a1a" d="m0 0c-7.007 0-5.791-18.345-19.343-18.345-8.684 0-11.987 7.573-11.987 14.814 0 3.074.576 11.526 5.097 11.526 1.563 0 4.746-1.046 4.746-3.593 0-2.072-2.193-3.172-2.193-7.933 0-4.107 1.667-5.791 3.461-5.791 5.797 0 4.694 18.357 19.288 18.357 8.342 0 12.863-6.081 12.863-14.467 0-7.603-3.717-13.966-7.54-13.966-1.962 0-4.856 1.732-4.856 3.933 0 2.722 4.287 4.459 4.287 9.841C3.823-2.959 2.78 0 0 0"/></g>
    <g transform="translate(550.1629,526.7161)"><path style="fill:#1a1a1a" d="M0 0C0 1.904 2.086 2.718 3.997 2.718 6.198 2.718 8.11 1.732 8.11 0v-7.995h31.452c1.851 0 2.772-2.277 2.772-4.516 0-2.265-.921-4.521-2.772-4.521H8.11v-7.99c0-1.746-1.912-2.718-4.113-2.718-1.911 0-3.997.804-3.997 2.718z"/></g>
    <g transform="translate(552.8851,535.9236)"><path style="fill:#1a1a1a" d="m0 0c-1.911 0-2.722 2.256-2.722 4.519 0 2.258.811 4.519 2.722 4.519h36.839c1.852 0 2.773-2.261 2.773-4.519C39.612 2.256 38.691 0 36.839 0z"/></g>
    <g transform="translate(550.1629,579.1909)"><path style="fill:#1a1a1a" d="M0 0C0 1.916 2.086 2.722 3.997 2.722 6.198 2.722 8.11 1.732 8.11 0v-7.997h31.452c1.851 0 2.772-2.256 2.772-4.514 0-2.258-.921-4.517-2.772-4.517H8.11v-7.999c0-1.737-1.912-2.71-4.113-2.71-1.911 0-3.997.811-3.997 2.71z"/></g>
    <g transform="translate(552.8851,608.3896)"><path style="fill:#1a1a1a" d="m0 0c-1.911 0-2.722 2.199-2.722 4.509 0 2.199.811 4.509 2.722 4.509h26.295c9.951 0 13.669-6.42 13.669-14.582 0-8.227-3.718-14.597-13.669-14.597H0c-1.911 0-2.722 2.196-2.722 4.509 0 2.215.811 4.528 2.722 4.528h26.295c3.94 0 5.791 2.086 5.791 5.56 0 3.466-1.851 5.564-5.791 5.564z"/></g>
    <g transform="translate(550.1629,651.4822)"><path style="fill:#1a1a1a" d="M0 0C0 1.909 2.086 2.718 3.997 2.718 6.198 2.718 8.11 1.729 8.11 0v-7.999h31.452c1.851 0 2.772-2.264 2.772-4.512 0-2.263-.921-4.526-2.772-4.526H8.11v-7.985c0-1.746-1.912-2.718-4.113-2.718-1.911 0-3.997.802-3.997 2.718z"/></g>
    <g transform="translate(563.8318,678.9944)"><path style="fill:#1a1a1a" d="m0 0c-3.99 0-5.799-1.973-5.799-5.208 0-3.258 1.809-5.16 5.799-5.16h15.348c4 0 5.792 1.902 5.792 5.16C21.14-1.973 19.348 0 15.348 0zM15.348-19.408H0c-9.954 0-13.669 6.206-13.669 14.2 0 7.985 3.715 14.239 13.669 14.239h15.348c9.952 0 13.669-6.254 13.669-14.239 0-7.994-3.717-14.2-13.669-14.2"/></g>
    <g transform="translate(1177.4594,550.7191)"><path style="fill:#eba733" d="m0 0c0 82.719-67.06 149.786-149.791 149.786-82.733 0-149.785-67.067-149.785-149.786 0-75.97 56.601-138.567 129.888-148.319V1.22h-3.979c-6.566 0-9.042 4.531-5.511 10.066l22.969 36.093c3.531 5.545 9.301 5.545 12.827 0l22.986-36.093c3.522-5.535 1.044-10.066-5.523-10.066H-129.9v-149.539C-56.594-138.567 0-75.97 0 0"/></g>
    <g transform="translate(1302.9647,690.9506)"><path style="fill:#0078b3" d="m0 0h-94.656c-6.554 0-11.929-5.375-11.929-11.93v-232.904l63.291 98.804-5.69 3.66c-5.531 3.531-5.175 8.698.77 11.449l38.839 18.013c5.952 2.761 10.801-.352 10.791-6.918l-.117-42.796c-.019-6.562-4.555-9.038-10.085-5.502l-5.692 3.638-74.305-115.979H0c6.562 0 11.937 5.363 11.937 11.937V-11.93C11.937-5.375 6.562 0 0 0"/></g>
    <g transform="translate(883.4426,418.5565)"><path style="fill:#e16f31" d="m0 0-72.519 112.911c33.094 4.918 61.125 33.49 61.125 78.429 0 55.183-38.712 83.023-82.358 83.023h-166.851c-6.579 0-11.942-5.371-11.942-11.932V1.892c0-6.566 5.363-11.934 11.942-11.934h125.924l-77.035 118.087c-20.676 31.715-11.71 74.344 19.984 95.021 15.365 10.038 33.727 13.469 51.666 9.689 17.953-3.775 33.361-14.305 43.387-29.665l7.195-11.033 4.105 2.686c5.502 3.581 10.059 1.144 10.134-5.423l.481-42.793c.062-6.569-4.759-9.717-10.741-7.014l-38.971 17.69c-5.99 2.708-6.382 7.861-.88 11.442l5.879 3.842-7.198 11.035c-4.791 7.346-12.166 12.389-20.766 14.207-8.586 1.784-17.363.16-24.721-4.646-15.166-9.899-19.458-30.309-9.564-45.482L-91.919-10.042H-5.483C1.072-10.042 3.543-5.516 0 0"/></g>
    <g transform="translate(1356.3213,429.9288)"><path style="fill:#000" d="M0 0H1.854C4.019 0 5.773.722 5.773 2.475 5.773 4.019 4.64 5.051 2.165 5.051 1.133 5.051.411 4.95 0 4.85ZM-.101-9.582H-4.019V7.316c1.544.311 3.709.521 6.494.521 3.188 0 4.632-.521 5.873-1.242.923-.713 1.645-2.056 1.645-3.709 0-1.854-1.443-3.297-3.499-3.91v-.209c1.645-.621 2.576-1.855 3.088-4.12.52-2.576.822-3.608 1.242-4.229H6.595C6.083-8.961 5.773-7.417 5.252-5.454 4.95-3.599 3.918-2.777 1.754-2.777H-.101zm-10.412 8.869c0-7.526 5.571-13.5 13.19-13.5 7.425 0 12.887 5.974 12.887 13.391 0 7.526-5.462 13.601-12.988 13.601-7.518 0-13.089-6.075-13.089-13.492m30.398 0c0-9.59-7.518-17.108-17.309-17.108-9.683 0-17.41 7.518-17.41 17.108 0 9.372 7.727 16.898 17.41 16.898 9.791 0 17.309-7.526 17.309-16.898"/></g>
  </g>
</svg>
